<?xml version="1.0" encoding="UTF-8"?>
<svg id="Layer_1" data-name="Layer 1" xmlns="http://www.w3.org/2000/svg" viewBox="0 0 612 792">
  <defs>
    <style>
      .cls-1 {
        fill: #fff;
        stroke: #fff;
        stroke-miterlimit: 10;
      }
    </style>
  </defs>
  <g id="_2" data-name="2">
    <path class="cls-1" d="m104.29,317.71h127.04c21.65,6.32,35.04,26.95,32.17,47.02-2.33,16.29-15.07,30.07-32.17,34.65h-44.55l-1.65,17.32,80.02,98.17h44.55l-67.64-82.49,32.17-16.09c3.16-3.3,6.32-6.6,9.49-9.9,4.4-6.52,10.28-16.92,13.75-30.8,4.23-16.96,2.93-31.33,1.51-39.73-.9-3.87-2.39-8.58-4.95-13.61-4.85-9.53-11.28-15.78-15.67-19.39-4.55-3.78-11.44-8.75-20.62-12.87-17.56-7.88-33.7-8.28-42.9-7.75-22.27.27-44.55.55-66.82.82-14.77.29-29.55.59-44.32.88.2,11.26.4,22.51.6,33.77Z"/>
    <path class="cls-1" d="m310.56,156l-207.71,116.44-.56,44.43h21.53l.4-31.72,186.02-104.3,144.68,85.99,11.21-18.38-155.57-92.45Zm179.22,131.55l3.79,2.26-2.69,213.24-186.02,104.3-183.33-108.96,1.53-121.79h-21.52l-1.7,133.94,204.7,121.65,207.71-116.44,2.88-227.59-25.35-.61Z"/>
    <path class="cls-1" d="m493.56,317.51h-123.98v68.06c31.57.41,63.13.82,94.7,1.24-.14,11.96-.27,23.92-.41,35.88h-94.29v95.69s-30.69,0-30.69,0v-232.22c52.11.55,104.22,1.1,156.32,1.65"/>
  </g>
</svg>